<svg width="178" height="48" viewBox="0 0 178 48" fill="none" xmlns="http://www.w3.org/2000/svg">
<g clip-path="url(#clip0_39_9357)">
<path d="M17.7686 23.7809L10.207 16.2192" stroke="#1D57E2" stroke-width="0.876712"/>
<path d="M2.64551 23.7807L10.0976 16.3286" stroke="#1D57E2" stroke-width="0.876712"/>
<path d="M17.875 31.6713V24.2192" stroke="#1D57E2" stroke-width="0.876712"/>
<path d="M2.53516 31.6713V24.2192" stroke="#1D57E2" stroke-width="0.876712"/>
<path d="M4.38845 21.1504H0.68475C0.19439 21.1504 -0.203125 21.5479 -0.203125 22.0383V25.7421C-0.203125 26.2324 0.19439 26.6299 0.68475 26.6299H4.38845C4.87881 26.6299 5.27633 26.2324 5.27633 25.7421V22.0383C5.27633 21.5479 4.87881 21.1504 4.38845 21.1504Z" fill="#1D57E2"/>
<path d="M4.38845 21.1504H0.68475C0.19439 21.1504 -0.203125 21.5479 -0.203125 22.0383V25.7421C-0.203125 26.2324 0.19439 26.6299 0.68475 26.6299H4.38845C4.87881 26.6299 5.27633 26.2324 5.27633 25.7421V22.0383C5.27633 21.5479 4.87881 21.1504 4.38845 21.1504Z" fill="#1D57E2"/>
<path d="M19.7283 21.1504H16.0246C15.5342 21.1504 15.1367 21.5479 15.1367 22.0383V25.7421C15.1367 26.2324 15.5342 26.6299 16.0246 26.6299H19.7283C20.2187 26.6299 20.6162 26.2324 20.6162 25.7421V22.0383C20.6162 21.5479 20.2187 21.1504 19.7283 21.1504Z" fill="#1D57E2"/>
<path d="M4.38455 28.8218H0.680842C0.190483 28.8218 -0.207031 29.2193 -0.207031 29.7097V33.4135C-0.207031 33.9038 0.190483 34.3013 0.680842 34.3013H4.38455C4.8749 34.3013 5.27242 33.9038 5.27242 33.4135V29.7097C5.27242 29.2193 4.8749 28.8218 4.38455 28.8218Z" fill="#1D57E2"/>
<path d="M19.7283 28.8218H16.0246C15.5342 28.8218 15.1367 29.2193 15.1367 29.7097V33.4135C15.1367 33.9038 15.5342 34.3013 16.0246 34.3013H19.7283C20.2187 34.3013 20.6162 33.9038 20.6162 33.4135V29.7097C20.6162 29.2193 20.2187 28.8218 19.7283 28.8218Z" fill="#1D57E2"/>
<path d="M7.46484 14.3674C7.46484 13.877 7.86244 13.4795 8.35274 13.4795H10.2046H12.0564C12.5468 13.4795 12.9443 13.877 12.9443 14.3674V16.2193V18.0712C12.9443 18.5615 12.5468 18.959 12.0564 18.959H8.35274C7.86244 18.959 7.46484 18.5615 7.46484 18.0712V14.3674Z" fill="#1D57E2"/>
<path d="M29.874 33.0686L35.4464 15.3941H39.7791L45.3514 33.0686H42.3075L37.2506 17.2106H37.9134L32.9179 33.0686H29.874ZM32.9793 29.2391V26.4775H42.2584V29.2391H32.9793ZM51.7069 33.4368C50.0703 33.4368 48.7407 33.0686 47.7178 32.3321C46.695 31.5957 46.0731 30.5606 45.8522 29.2268L48.8716 28.7604C49.027 29.415 49.3707 29.9305 49.9026 30.3069C50.4345 30.6833 51.1054 30.8715 51.9155 30.8715C52.6274 30.8715 53.1756 30.7324 53.5602 30.4542C53.953 30.1678 54.1494 29.7792 54.1494 29.2882C54.1494 28.9854 54.0757 28.7441 53.9284 28.564C53.7893 28.3758 53.4784 28.1958 52.9956 28.024C52.5129 27.8521 51.7723 27.6353 50.774 27.3735C49.6612 27.0789 48.7775 26.7639 48.1229 26.4284C47.4683 26.0847 46.9978 25.6797 46.7114 25.2132C46.425 24.7468 46.2818 24.1822 46.2818 23.5194C46.2818 22.693 46.4986 21.9729 46.9323 21.3592C47.366 20.7455 47.9715 20.275 48.7488 19.9477C49.5262 19.6122 50.4426 19.4445 51.4982 19.4445C52.5292 19.4445 53.4416 19.604 54.2353 19.9232C55.0372 20.2423 55.6836 20.6964 56.1746 21.2856C56.6655 21.8747 56.9683 22.5662 57.0829 23.3599L54.0635 23.8999C53.9898 23.3353 53.7321 22.8894 53.2902 22.5621C52.8565 22.2348 52.2756 22.0507 51.5473 22.0097C50.8518 21.9688 50.2913 22.0752 49.8658 22.3289C49.4403 22.5743 49.2275 22.9221 49.2275 23.3721C49.2275 23.6258 49.3134 23.8427 49.4853 24.0227C49.6571 24.2027 50.0008 24.3827 50.5163 24.5627C51.04 24.7427 51.8173 24.9637 52.8483 25.2255C53.9039 25.4955 54.7467 25.8065 55.3768 26.1583C56.015 26.502 56.4733 26.9152 56.7515 27.398C57.0379 27.8808 57.181 28.4658 57.181 29.1532C57.181 30.487 56.6942 31.5343 55.7204 32.2953C54.7549 33.0563 53.417 33.4368 51.7069 33.4368ZM64.0058 33.4368C62.3692 33.4368 61.0395 33.0686 60.0167 32.3321C58.9939 31.5957 58.372 30.5606 58.1511 29.2268L61.1705 28.7604C61.3259 29.415 61.6696 29.9305 62.2015 30.3069C62.7334 30.6833 63.4043 30.8715 64.2144 30.8715C64.9263 30.8715 65.4745 30.7324 65.8591 30.4542C66.2519 30.1678 66.4483 29.7792 66.4483 29.2882C66.4483 28.9854 66.3746 28.7441 66.2273 28.564C66.0882 28.3758 65.7773 28.1958 65.2945 28.024C64.8117 27.8521 64.0712 27.6353 63.0729 27.3735C61.9601 27.0789 61.0764 26.7639 60.4218 26.4284C59.7671 26.0847 59.2966 25.6797 59.0103 25.2132C58.7239 24.7468 58.5807 24.1822 58.5807 23.5194C58.5807 22.693 58.7975 21.9729 59.2312 21.3592C59.6649 20.7455 60.2704 20.275 61.0477 19.9477C61.8251 19.6122 62.7415 19.4445 63.7971 19.4445C64.8281 19.4445 65.7405 19.604 66.5342 19.9232C67.3361 20.2423 67.9825 20.6964 68.4735 21.2856C68.9644 21.8747 69.2672 22.5662 69.3818 23.3599L66.3624 23.8999C66.2887 23.3353 66.031 22.8894 65.5891 22.5621C65.1554 22.2348 64.5745 22.0507 63.8462 22.0097C63.1507 21.9688 62.5902 22.0752 62.1647 22.3289C61.7392 22.5743 61.5264 22.9221 61.5264 23.3721C61.5264 23.6258 61.6123 23.8427 61.7842 24.0227C61.956 24.2027 62.2997 24.3827 62.8152 24.5627C63.3389 24.7427 64.1162 24.9637 65.1472 25.2255C66.2028 25.4955 67.0456 25.8065 67.6757 26.1583C68.3139 26.502 68.7721 26.9152 69.0504 27.398C69.3367 27.8808 69.4799 28.4658 69.4799 29.1532C69.4799 30.487 68.9931 31.5343 68.0193 32.2953C67.0538 33.0563 65.7159 33.4368 64.0058 33.4368ZM77.0411 33.4368C75.7155 33.4368 74.5577 33.1381 73.5676 32.5408C72.5775 31.9435 71.8083 31.1211 71.2601 30.0737C70.72 29.0182 70.45 27.8071 70.45 26.4406C70.45 25.0496 70.7282 23.8304 71.2846 22.783C71.841 21.7356 72.6143 20.9174 73.6044 20.3282C74.5945 19.7391 75.7401 19.4445 77.0411 19.4445C78.3749 19.4445 79.5368 19.7431 80.5269 20.3405C81.517 20.9378 82.2862 21.7643 82.8344 22.8198C83.3826 23.8672 83.6568 25.0741 83.6568 26.4406C83.6568 27.8153 83.3785 29.0304 82.8221 30.086C82.2739 31.1334 81.5047 31.9557 80.5146 32.5531C79.5245 33.1422 78.3667 33.4368 77.0411 33.4368ZM77.0411 30.6629C78.2194 30.6629 79.0949 30.2701 79.6677 29.4846C80.2405 28.699 80.5269 27.6844 80.5269 26.4406C80.5269 25.156 80.2364 24.1331 79.6554 23.3721C79.0745 22.603 78.203 22.2184 77.0411 22.2184C76.2474 22.2184 75.5928 22.3984 75.0773 22.7585C74.5699 23.1103 74.1935 23.6054 73.9481 24.2436C73.7026 24.8737 73.5798 25.606 73.5798 26.4406C73.5798 27.7253 73.8703 28.7522 74.4513 29.5214C75.0404 30.2824 75.9037 30.6629 77.0411 30.6629ZM84.8882 33.0686V19.8127H87.5022V23.0408L87.1832 22.6234C87.3472 22.1816 87.5642 21.7806 87.8342 21.4206C88.1122 21.0524 88.4432 20.7496 88.8282 20.5123C89.1552 20.2914 89.5152 20.1195 89.9082 19.9968C90.3092 19.8659 90.7182 19.7882 91.1352 19.7636C91.5532 19.7309 91.9582 19.7472 92.3512 19.8127V22.5743C91.9582 22.4598 91.5042 22.423 90.9882 22.4639C90.4812 22.5048 90.0232 22.648 89.6132 22.8935C89.2042 23.1144 88.8692 23.3967 88.6072 23.7404C88.3532 24.084 88.1652 24.4768 88.0422 24.9187C87.9202 25.3523 87.8582 25.8229 87.8582 26.3302V33.0686H84.8882ZM102.953 33.0686C102.078 33.2322 101.218 33.3018 100.376 33.2772C99.5412 33.2609 98.7922 33.1095 98.1292 32.8231C97.4672 32.5285 96.9632 32.0662 96.6202 31.4361C96.3172 30.8634 96.1572 30.2783 96.1412 29.681C96.1252 29.0836 96.1172 28.4086 96.1172 27.6558V16.1305H99.0622V27.4839C99.0622 28.0158 99.0662 28.4822 99.0752 28.8832C99.0912 29.2841 99.1772 29.6114 99.3322 29.8651C99.6272 30.356 100.097 30.6302 100.744 30.6874C101.39 30.7447 102.127 30.712 102.953 30.5892V33.0686ZM93.7112 22.1325V19.8127H102.953V22.1325H93.7112ZM109 33.0686V15.3941H110.804V23.3599H120.574V15.3941H122.366V33.0686H120.574V25.0905H110.804V33.0686H109ZM130.186 33.4368C128.893 33.4368 127.772 33.1504 126.823 32.5776C125.882 32.0048 125.15 31.1988 124.626 30.1597C124.102 29.1205 123.841 27.9012 123.841 26.502C123.841 25.0537 124.098 23.8017 124.614 22.7462C125.129 21.6906 125.853 20.8764 126.786 20.3037C127.727 19.7309 128.836 19.4445 130.113 19.4445C131.422 19.4445 132.539 19.7472 133.463 20.3528C134.388 20.9501 135.088 21.8093 135.562 22.9303C136.037 24.0513 136.254 25.3892 136.213 26.9439H134.372V26.3056C134.339 24.5873 133.967 23.2903 133.255 22.4148C132.551 21.5392 131.52 21.1015 130.162 21.1015C128.738 21.1015 127.645 21.5638 126.885 22.4884C126.132 23.4131 125.755 24.7305 125.755 26.4406C125.755 28.1099 126.132 29.4068 126.885 30.3315C127.645 31.2479 128.722 31.7062 130.113 31.7062C131.062 31.7062 131.888 31.4893 132.592 31.0557C133.304 30.6138 133.864 29.9796 134.273 29.1532L135.955 29.8037C135.431 30.9575 134.658 31.8535 133.635 32.4917C132.621 33.1218 131.471 33.4368 130.186 33.4368ZM125.117 26.9439V25.4342H135.243V26.9439H125.117ZM141.508 33.4368C140.509 33.4368 139.671 33.2568 138.991 32.8967C138.32 32.5367 137.817 32.058 137.482 31.4607C137.146 30.8634 136.978 30.2128 136.978 29.5091C136.978 28.7891 137.122 28.1754 137.408 27.668C137.703 27.1525 138.1 26.7311 138.599 26.4038C139.106 26.0765 139.691 25.8269 140.354 25.6551C141.025 25.4915 141.765 25.3483 142.575 25.2255C143.394 25.0946 144.191 24.9841 144.969 24.8941C145.754 24.7959 146.442 24.7018 147.031 24.6118L146.393 25.0046C146.417 23.6954 146.164 22.7257 145.632 22.0957C145.1 21.4656 144.175 21.1506 142.858 21.1506C141.949 21.1506 141.18 21.3551 140.55 21.7643C139.928 22.1734 139.491 22.8198 139.237 23.7035L137.482 23.188C137.784 22.0016 138.394 21.081 139.311 20.4264C140.227 19.7718 141.418 19.4445 142.882 19.4445C144.093 19.4445 145.12 19.6736 145.963 20.1318C146.814 20.5819 147.415 21.2365 147.767 22.0957C147.931 22.4802 148.037 22.9098 148.086 23.3844C148.136 23.859 148.16 24.3418 148.16 24.8328V33.0686H146.552V29.7423L147.019 29.9387C146.569 31.0761 145.869 31.9435 144.92 32.5408C143.971 33.1381 142.833 33.4368 141.508 33.4368ZM141.716 31.878C142.559 31.878 143.295 31.7266 143.926 31.4239C144.556 31.1211 145.063 30.7079 145.448 30.1842C145.832 29.6523 146.082 29.055 146.196 28.3922C146.294 27.9667 146.348 27.5003 146.356 26.993C146.364 26.4775 146.368 26.0929 146.368 25.8392L147.055 26.1952C146.442 26.277 145.775 26.3588 145.055 26.4406C144.343 26.5225 143.639 26.6166 142.944 26.7229C142.256 26.8293 141.634 26.9561 141.078 27.1034C140.702 27.2098 140.337 27.3612 139.986 27.5576C139.634 27.7458 139.343 27.9994 139.114 28.3186C138.893 28.6377 138.783 29.0345 138.783 29.5091C138.783 29.8937 138.877 30.266 139.065 30.6261C139.261 30.9861 139.572 31.2848 139.998 31.5221C140.432 31.7594 141.004 31.878 141.716 31.878ZM149.882 33.0686V15.0259H151.687V33.0686H149.882ZM161.847 33.0686C161.102 33.2241 160.366 33.2854 159.638 33.2527C158.918 33.22 158.271 33.0645 157.698 32.7863C157.134 32.5081 156.704 32.0744 156.41 31.4852C156.172 30.9943 156.041 30.4992 156.017 30.0001C156.001 29.4928 155.992 28.9159 155.992 28.2695V16.1305H157.784V28.1958C157.784 28.7522 157.788 29.2186 157.797 29.595C157.813 29.9633 157.899 30.2906 158.054 30.577C158.349 31.1252 158.815 31.4525 159.454 31.5589C160.1 31.6653 160.898 31.6407 161.847 31.4852V33.0686ZM153.157 21.3592V19.8127H161.847V21.3592H153.157ZM173.051 33.0686V26.3056C173.051 25.5692 172.981 24.8941 172.842 24.2804C172.703 23.6585 172.478 23.1185 172.167 22.6603C171.864 22.1938 171.467 21.8338 170.976 21.5801C170.493 21.3265 169.904 21.1997 169.209 21.1997C168.571 21.1997 168.006 21.3101 167.515 21.5311C167.032 21.752 166.623 22.0711 166.288 22.4884C165.96 22.8976 165.711 23.3967 165.539 23.9858C165.367 24.575 165.281 25.246 165.281 25.9988L164.005 25.7165C164.005 24.3582 164.242 23.2167 164.717 22.292C165.191 21.3674 165.846 20.6678 166.68 20.1932C167.515 19.7186 168.472 19.4813 169.552 19.4813C170.346 19.4813 171.038 19.604 171.627 19.8495C172.224 20.095 172.727 20.4264 173.136 20.8437C173.554 21.261 173.889 21.7397 174.143 22.2798C174.397 22.8116 174.581 23.3803 174.695 23.9858C174.81 24.5832 174.867 25.1805 174.867 25.7778V33.0686H173.051ZM163.465 33.0686V15.3941H165.097V25.3728H165.281V33.0686H163.465Z" fill="#1D57E2"/>
</g>
<defs>
<clipPath id="clip0_39_9357">
<rect width="178" height="48" fill="white"/>
</clipPath>
</defs>
</svg>
